<svg width="209" height="32" viewBox="0 0 209 32" fill="none" xmlns="http://www.w3.org/2000/svg">
<path d="M6.39062 25H3.5V6.625C3.5 5.34375 3.75 4.26042 4.25 3.375C4.75 2.48958 5.46354 1.81771 6.39062 1.35938C7.31771 0.901042 8.41667 0.671875 9.6875 0.671875C10.4375 0.671875 11.1719 0.765625 11.8906 0.953125C12.6094 1.13021 13.349 1.35417 14.1094 1.625L13.625 4.0625C13.1458 3.875 12.5885 3.69792 11.9531 3.53125C11.3281 3.35417 10.6406 3.26562 9.89062 3.26562C8.65104 3.26562 7.75521 3.54688 7.20312 4.10938C6.66146 4.66146 6.39062 5.5 6.39062 6.625V25ZM9.84375 8.09375V10.3125H0.828125V8.09375H9.84375ZM15.5312 8.09375V25H12.6406V8.09375H15.5312ZM25.4344 8.09375L29.1375 14.25L32.8875 8.09375H36.2781L30.7469 16.4375L36.45 25H33.1063L29.2 18.6562L25.2938 25H21.9344L27.6219 16.4375L22.1063 8.09375H25.4344ZM45.4313 11.4531V25H42.525V8.09375H45.275L45.4313 11.4531ZM44.8375 15.9062L43.4938 15.8594C43.5042 14.7031 43.6552 13.6354 43.9469 12.6562C44.2385 11.6667 44.6708 10.8073 45.2438 10.0781C45.8167 9.34896 46.5302 8.78646 47.3844 8.39062C48.2385 7.98438 49.2281 7.78125 50.3531 7.78125C51.1448 7.78125 51.874 7.89583 52.5406 8.125C53.2073 8.34375 53.7854 8.69271 54.275 9.17188C54.7646 9.65104 55.1448 10.2656 55.4156 11.0156C55.6865 11.7656 55.8219 12.6719 55.8219 13.7344V25H52.9313V13.875C52.9313 12.9896 52.7802 12.2812 52.4781 11.75C52.1865 11.2188 51.7698 10.8333 51.2281 10.5938C50.6865 10.3438 50.051 10.2188 49.3219 10.2188C48.4677 10.2188 47.7542 10.3698 47.1813 10.6719C46.6083 10.974 46.15 11.3906 45.8063 11.9219C45.4625 12.4531 45.2125 13.0625 45.0563 13.75C44.9104 14.4271 44.8375 15.1458 44.8375 15.9062ZM55.7906 14.3125L53.8531 14.9062C53.8635 13.9792 54.0146 13.0885 54.3063 12.2344C54.6083 11.3802 55.0406 10.6198 55.6031 9.95312C56.176 9.28646 56.8792 8.76042 57.7125 8.375C58.5458 7.97917 59.499 7.78125 60.5719 7.78125C61.4781 7.78125 62.2802 7.90104 62.9781 8.14062C63.6865 8.38021 64.2802 8.75 64.7594 9.25C65.249 9.73958 65.6188 10.3698 65.8688 11.1406C66.1188 11.9115 66.2438 12.8281 66.2438 13.8906V25H63.3375V13.8594C63.3375 12.9115 63.1865 12.1771 62.8844 11.6562C62.5927 11.125 62.176 10.7552 61.6344 10.5469C61.1031 10.3281 60.4677 10.2188 59.7281 10.2188C59.0927 10.2188 58.5302 10.3281 58.0406 10.5469C57.551 10.7656 57.1396 11.0677 56.8063 11.4531C56.4729 11.8281 56.2177 12.2604 56.0406 12.75C55.874 13.2396 55.7906 13.7604 55.7906 14.3125ZM78.5687 23.25L83.2719 8.09375H86.3656L79.5844 27.6094C79.4281 28.026 79.2198 28.474 78.9594 28.9531C78.7094 29.4427 78.3865 29.9062 77.9906 30.3438C77.5948 30.7812 77.1156 31.1354 76.5531 31.4062C76.001 31.6875 75.3396 31.8281 74.5687 31.8281C74.3396 31.8281 74.0479 31.7969 73.6937 31.7344C73.3396 31.6719 73.0896 31.6198 72.9437 31.5781L72.9281 29.2344C73.0115 29.2448 73.1417 29.2552 73.3187 29.2656C73.5062 29.2865 73.6365 29.2969 73.7094 29.2969C74.3656 29.2969 74.9229 29.2083 75.3812 29.0312C75.8396 28.8646 76.225 28.5781 76.5375 28.1719C76.8604 27.776 77.1365 27.2292 77.3656 26.5312L78.5687 23.25ZM75.1156 8.09375L79.5062 21.2188L80.2562 24.2656L78.1781 25.3281L71.9594 8.09375H75.1156ZM102.019 20.5156C102.019 20.099 101.925 19.7135 101.738 19.3594C101.56 18.9948 101.191 18.6667 100.628 18.375C100.076 18.0729 99.2427 17.8125 98.1281 17.5938C97.1906 17.3958 96.3417 17.1615 95.5813 16.8906C94.8313 16.6198 94.1906 16.2917 93.6594 15.9062C93.1385 15.5208 92.7375 15.0677 92.4563 14.5469C92.175 14.026 92.0344 13.4167 92.0344 12.7188C92.0344 12.0521 92.1802 11.4219 92.4719 10.8281C92.774 10.2344 93.1958 9.70833 93.7375 9.25C94.2896 8.79167 94.951 8.43229 95.7219 8.17188C96.4927 7.91146 97.3521 7.78125 98.3 7.78125C99.6542 7.78125 100.81 8.02083 101.769 8.5C102.727 8.97917 103.461 9.61979 103.972 10.4219C104.482 11.2135 104.738 12.0938 104.738 13.0625H101.847C101.847 12.5938 101.706 12.1406 101.425 11.7031C101.154 11.2552 100.753 10.8854 100.222 10.5938C99.701 10.3021 99.0604 10.1562 98.3 10.1562C97.4979 10.1562 96.8469 10.2812 96.3469 10.5312C95.8573 10.7708 95.4979 11.0781 95.2688 11.4531C95.05 11.8281 94.9406 12.224 94.9406 12.6406C94.9406 12.9531 94.9927 13.2344 95.0969 13.4844C95.2115 13.724 95.4094 13.9479 95.6906 14.1562C95.9719 14.3542 96.3677 14.5417 96.8781 14.7188C97.3885 14.8958 98.0396 15.0729 98.8313 15.25C100.217 15.5625 101.357 15.9375 102.253 16.375C103.149 16.8125 103.816 17.349 104.253 17.9844C104.691 18.6198 104.909 19.3906 104.909 20.2969C104.909 21.0365 104.753 21.7135 104.441 22.3281C104.139 22.9427 103.696 23.474 103.113 23.9219C102.54 24.3594 101.852 24.7031 101.05 24.9531C100.258 25.1927 99.3677 25.3125 98.3781 25.3125C96.8885 25.3125 95.6281 25.0469 94.5969 24.5156C93.5656 23.9844 92.7844 23.2969 92.2531 22.4531C91.7219 21.6094 91.4563 20.7188 91.4563 19.7812H94.3625C94.4042 20.5729 94.6333 21.2031 95.05 21.6719C95.4667 22.1302 95.9771 22.4583 96.5813 22.6562C97.1854 22.8438 97.7844 22.9375 98.3781 22.9375C99.1698 22.9375 99.8313 22.8333 100.363 22.625C100.904 22.4167 101.316 22.1302 101.597 21.7656C101.878 21.401 102.019 20.9844 102.019 20.5156ZM115.047 8.09375V25H112.141V8.09375H115.047ZM111.922 3.60938C111.922 3.14062 112.062 2.74479 112.344 2.42188C112.635 2.09896 113.062 1.9375 113.625 1.9375C114.177 1.9375 114.599 2.09896 114.891 2.42188C115.193 2.74479 115.344 3.14062 115.344 3.60938C115.344 4.05729 115.193 4.44271 114.891 4.76562C114.599 5.07812 114.177 5.23438 113.625 5.23438C113.062 5.23438 112.635 5.07812 112.344 4.76562C112.062 4.44271 111.922 4.05729 111.922 3.60938ZM125.778 11.7031V25H122.887V8.09375H125.622L125.778 11.7031ZM125.091 15.9062L123.887 15.8594C123.898 14.7031 124.07 13.6354 124.403 12.6562C124.736 11.6667 125.205 10.8073 125.809 10.0781C126.414 9.34896 127.132 8.78646 127.966 8.39062C128.809 7.98438 129.742 7.78125 130.762 7.78125C131.596 7.78125 132.346 7.89583 133.012 8.125C133.679 8.34375 134.247 8.69792 134.716 9.1875C135.195 9.67708 135.559 10.3125 135.809 11.0938C136.059 11.8646 136.184 12.8073 136.184 13.9219V25H133.278V13.8906C133.278 13.0052 133.148 12.2969 132.887 11.7656C132.627 11.224 132.247 10.8333 131.747 10.5938C131.247 10.3438 130.632 10.2188 129.903 10.2188C129.184 10.2188 128.528 10.3698 127.934 10.6719C127.351 10.974 126.846 11.3906 126.419 11.9219C126.002 12.4531 125.674 13.0625 125.434 13.75C125.205 14.4271 125.091 15.1458 125.091 15.9062ZM146.681 1V25H143.775V1H146.681ZM157.009 8.09375L149.634 15.9844L145.509 20.2656L145.275 17.1875L148.228 13.6562L153.478 8.09375H157.009ZM154.369 25L148.337 16.9375L149.837 14.3594L157.775 25H154.369ZM166.084 11.3438V31.5H163.178V8.09375H165.834L166.084 11.3438ZM177.475 16.4062V16.7344C177.475 17.9635 177.329 19.1042 177.038 20.1562C176.746 21.1979 176.319 22.1042 175.756 22.875C175.204 23.6458 174.522 24.2448 173.709 24.6719C172.897 25.099 171.965 25.3125 170.913 25.3125C169.84 25.3125 168.892 25.1354 168.069 24.7812C167.246 24.4271 166.548 23.9115 165.975 23.2344C165.402 22.5573 164.944 21.7448 164.6 20.7969C164.267 19.849 164.038 18.7812 163.913 17.5938V15.8438C164.038 14.5938 164.272 13.474 164.616 12.4844C164.959 11.4948 165.413 10.651 165.975 9.95312C166.548 9.24479 167.241 8.70833 168.053 8.34375C168.866 7.96875 169.803 7.78125 170.866 7.78125C171.928 7.78125 172.871 7.98958 173.694 8.40625C174.517 8.8125 175.209 9.39583 175.772 10.1562C176.334 10.9167 176.756 11.8281 177.038 12.8906C177.329 13.9427 177.475 15.1146 177.475 16.4062ZM174.569 16.7344V16.4062C174.569 15.5625 174.48 14.7708 174.303 14.0312C174.126 13.2812 173.85 12.625 173.475 12.0625C173.11 11.4896 172.642 11.0417 172.069 10.7188C171.496 10.3854 170.814 10.2188 170.022 10.2188C169.293 10.2188 168.657 10.3438 168.116 10.5938C167.584 10.8438 167.131 11.1823 166.756 11.6094C166.381 12.026 166.074 12.5052 165.834 13.0469C165.605 13.5781 165.433 14.1302 165.319 14.7031V18.75C165.527 19.4792 165.819 20.1667 166.194 20.8125C166.569 21.4479 167.069 21.9635 167.694 22.3594C168.319 22.7448 169.105 22.9375 170.053 22.9375C170.834 22.9375 171.506 22.776 172.069 22.4531C172.642 22.1198 173.11 21.6667 173.475 21.0938C173.85 20.5208 174.126 19.8646 174.303 19.125C174.48 18.375 174.569 17.5781 174.569 16.7344ZM187.503 1V25H184.597V1H187.503ZM205.188 20.5156C205.188 20.099 205.094 19.7135 204.906 19.3594C204.729 18.9948 204.359 18.6667 203.797 18.375C203.245 18.0729 202.411 17.8125 201.297 17.5938C200.359 17.3958 199.51 17.1615 198.75 16.8906C198 16.6198 197.359 16.2917 196.828 15.9062C196.307 15.5208 195.906 15.0677 195.625 14.5469C195.344 14.026 195.203 13.4167 195.203 12.7188C195.203 12.0521 195.349 11.4219 195.641 10.8281C195.943 10.2344 196.365 9.70833 196.906 9.25C197.458 8.79167 198.12 8.43229 198.891 8.17188C199.661 7.91146 200.521 7.78125 201.469 7.78125C202.823 7.78125 203.979 8.02083 204.938 8.5C205.896 8.97917 206.63 9.61979 207.141 10.4219C207.651 11.2135 207.906 12.0938 207.906 13.0625H205.016C205.016 12.5938 204.875 12.1406 204.594 11.7031C204.323 11.2552 203.922 10.8854 203.391 10.5938C202.87 10.3021 202.229 10.1562 201.469 10.1562C200.667 10.1562 200.016 10.2812 199.516 10.5312C199.026 10.7708 198.667 11.0781 198.438 11.4531C198.219 11.8281 198.109 12.224 198.109 12.6406C198.109 12.9531 198.161 13.2344 198.266 13.4844C198.38 13.724 198.578 13.9479 198.859 14.1562C199.141 14.3542 199.536 14.5417 200.047 14.7188C200.557 14.8958 201.208 15.0729 202 15.25C203.385 15.5625 204.526 15.9375 205.422 16.375C206.318 16.8125 206.984 17.349 207.422 17.9844C207.859 18.6198 208.078 19.3906 208.078 20.2969C208.078 21.0365 207.922 21.7135 207.609 22.3281C207.307 22.9427 206.865 23.474 206.281 23.9219C205.708 24.3594 205.021 24.7031 204.219 24.9531C203.427 25.1927 202.536 25.3125 201.547 25.3125C200.057 25.3125 198.797 25.0469 197.766 24.5156C196.734 23.9844 195.953 23.2969 195.422 22.4531C194.891 21.6094 194.625 20.7188 194.625 19.7812H197.531C197.573 20.5729 197.802 21.2031 198.219 21.6719C198.635 22.1302 199.146 22.4583 199.75 22.6562C200.354 22.8438 200.953 22.9375 201.547 22.9375C202.339 22.9375 203 22.8333 203.531 22.625C204.073 22.4167 204.484 22.1302 204.766 21.7656C205.047 21.401 205.188 20.9844 205.188 20.5156Z" fill="#2EB0BC"/>
</svg>
